<?xml version="1.0" encoding="UTF-8" standalone="no"?>
<svg
   fill="currentColor"
   viewBox="0 0 156 109"
   version="1.1"
   id="svg876"
   sodipodi:docname="ushahidi.svg"
   inkscape:version="1.1.2 (0a00cf5339, 2022-02-04)"
   xmlns:inkscape="http://www.inkscape.org/namespaces/inkscape"
   xmlns:sodipodi="http://sodipodi.sourceforge.net/DTD/sodipodi-0.dtd"
   xmlns="http://www.w3.org/2000/svg"
   xmlns:svg="http://www.w3.org/2000/svg">
  <defs
     id="defs880" />
  <sodipodi:namedview
     id="namedview878"
     pagecolor="#ffffff"
     bordercolor="#666666"
     borderopacity="1.0"
     inkscape:pageshadow="2"
     inkscape:pageopacity="0.0"
     inkscape:pagecheckerboard="0"
     showgrid="false"
     inkscape:zoom="3.7018349"
     inkscape:cx="49.975216"
     inkscape:cy="83.607186"
     inkscape:window-width="1920"
     inkscape:window-height="1016"
     inkscape:window-x="0"
     inkscape:window-y="0"
     inkscape:window-maximized="1"
     inkscape:current-layer="svg876" />
  <g
     id="g3502"
     transform="matrix(1.0657203,0,0,1.0920911,-5.8284345,-3.6159841)">
    <path
       fill="#ffc235"
       d="m 102.644,56.183 c 2.626,0 4.755,-2.144 4.755,-4.788 0,-2.644 -2.129,-4.788 -4.755,-4.788 -2.626,0 -4.755,2.144 -4.755,4.788 0,2.644 2.129,4.788 4.755,4.788 z"
       id="path844" />
    <path
       fill="#ffc235"
       fill-rule="evenodd"
       d="m 100.665,23.65 a 7.974,7.974 0 0 0 1.355,-10.768 7.877,7.877 0 0 0 -4.888,-3.136 7.838,7.838 0 0 0 -5.697,1.078 3.506,3.506 0 0 0 -1.271,-1.721 3.469,3.469 0 0 0 -3.56,-0.299 3.44,3.44 0 0 0 -1.211,1.007 23.532,23.532 0 0 0 -6.871,-1.013 23.828,23.828 0 0 0 -12.04,3.255 24.036,24.036 0 0 0 -8.785,8.905 10.336,10.336 0 0 0 -6.194,3.114 10.486,10.486 0 0 0 -1.118,13.092 10.367,10.367 0 0 0 5.576,4.132 24.302,24.302 0 0 0 8.642,11.388 16.61,16.61 0 0 0 6.856,8.411 16.432,16.432 0 0 0 10.553,2.345 16.478,16.478 0 0 0 9.735,-4.723 16.678,16.678 0 0 0 4.753,-9.772 24.29,24.29 0 0 0 5.681,-12.05 24.377,24.377 0 0 0 -1.516,-13.25 m -22.143,28.24 a 18.705,18.705 0 0 1 -10.44,-3.2 18.896,18.896 0 0 1 -6.914,-8.498 19.042,19.042 0 0 1 -1.06,-10.934 18.962,18.962 0 0 1 5.153,-9.684 18.755,18.755 0 0 1 9.628,-5.17 18.677,18.677 0 0 1 10.858,1.087 18.823,18.823 0 0 1 8.428,6.978 19.013,19.013 0 0 1 3.158,10.515 19.02,19.02 0 0 1 -5.526,13.366 18.762,18.762 0 0 1 -13.285,5.54 z"
       clip-rule="evenodd"
       id="path846" />
    <path
       fill="#ffc235"
       d="m 53.498,21.098 a 2.716,2.716 0 0 0 2.707,-2.726 2.716,2.716 0 0 0 -2.707,-2.725 2.716,2.716 0 0 0 -2.707,2.725 2.716,2.716 0 0 0 2.707,2.726 z M 81.819,47.69 a 28.017,28.017 0 0 1 -6.18,-1.153 c -0.624,1.294 -1.143,2.062 -1.492,2.202 a 16.26,16.26 0 0 0 3.645,0.699 h 0.138 a 5.628,5.628 0 0 0 3.888,-1.749 z m -3.889,1.748 h 0.244 a 0.292,0.292 0 0 1 -0.243,0 z M 64.951,23.474 a 0.18,0.18 0 0 0 0.069,-0.14 c -0.034,0.07 -0.069,0.105 -0.069,0.14 z"
       id="path848" />
    <path
       fill="#ffc235"
       d="m 86.643,47.411 c 0.244,-0.13 0.476,-0.283 0.694,-0.454 a 11.53,11.53 0 0 1 -4.582,0.768 6.446,6.446 0 0 1 -4.234,1.747 h 0.173 a 16.546,16.546 0 0 0 6.942,-1.536 l 0.07,-0.035 a 24.4,24.4 0 0 0 0.937,-0.49 z M 73.94,48.774 c 0.593,0.177 1.195,0.317 1.805,0.42 a 17.847,17.847 0 0 1 -1.736,-0.42 h -0.07 z M 73.627,48.67 c 0.095,0.028 0.188,0.063 0.278,0.104 l -0.243,-0.07 -0.035,-0.035 z m 2.708,0.628 c -0.139,-0.035 -0.278,-0.035 -0.452,-0.07 0.148,0.038 0.3,0.062 0.452,0.07 z m -11.94,-24.95 0.313,-0.524 z m 5.067,22.294 c -0.034,0 -0.034,-0.035 -0.069,-0.035 0.034,0 0.034,0 0.07,0.035 z m 2.013,1.153 a 11.721,11.721 0 0 1 -1.319,-0.7 l -0.138,-0.068 a 16.028,16.028 0 0 0 3.4,1.607 h 0.032 c -0.69,-0.28 -1.35,-0.524 -1.975,-0.84 z m -2.672,-1.607 c -0.034,-0.035 -0.07,-0.035 -0.07,-0.07 0.14,0.105 0.244,0.174 0.382,0.28 -0.07,-0.036 -0.138,-0.106 -0.243,-0.176 -0.034,-0.034 -0.034,-0.034 -0.069,-0.034 z m 8.989,3.25 a 0.955,0.955 0 0 1 -0.313,-0.035 c 0.208,0 0.416,0.035 0.625,0.035 H 77.791 Z M 68.491,35.81 a 17.176,17.176 0 0 1 -4.442,-4.088 13.202,13.202 0 0 0 -0.521,6.779 15.24,15.24 0 0 0 3.89,3.6 17.22,17.22 0 0 1 1.073,-6.29 z m -0.139,7.478 a 4.946,4.946 0 0 0 1.388,3.494 c 0.506,0.308 1.027,0.588 1.563,0.839 0.71,0.336 1.44,0.628 2.186,0.874 0.41,-0.751 0.758,-1.534 1.042,-2.342 a 32.004,32.004 0 0 1 -3.576,-1.468 c -0.9,-0.401 -1.77,-0.868 -2.603,-1.397 z m 0.451,-8.391 a 31.506,31.506 0 0 1 3.679,-6.912 15.507,15.507 0 0 1 -3.85,-3.532 19.681,19.681 0 0 0 -4.272,6.36 17.766,17.766 0 0 0 4.443,4.084 z M 69.01,23.195 a 20.853,20.853 0 0 1 6.734,-3.843 2.089,2.089 0 0 1 -0.277,-1.818 16.092,16.092 0 0 0 -6.941,2.586 3.52,3.52 0 0 0 0.485,3.075 z m 23.812,9.12 c -1.487,0.6 -3.087,0.863 -4.686,0.768 a 27.43,27.43 0 0 1 -1.25,7.724 c 1.85,0.106 3.7,-0.204 5.416,-0.909 0.746,-2.455 0.923,-5.049 0.52,-7.583 z m -7.359,9.365 a 32.368,32.368 0 0 1 -7.291,-1.362 66.928,66.928 0 0 1 -2.289,5.73 27.891,27.891 0 0 0 6.386,1.188 16.663,16.663 0 0 0 3.194,-5.555 z M 69.358,23.754 a 14.442,14.442 0 0 0 3.715,3.425 29.333,29.333 0 0 1 5.067,-5.453 8.963,8.963 0 0 1 -2.187,-2.025 21.186,21.186 0 0 0 -6.595,4.053 z m 13.918,23.517 a 11.09,11.09 0 0 0 4.756,-0.804 12.594,12.594 0 0 0 3.991,-5.66 12.91,12.91 0 0 1 -5.415,0.908 15.872,15.872 0 0 1 -3.332,5.556 z M 81.124,30.917 a 29.31,29.31 0 0 0 6.075,1.152 28.953,28.953 0 0 0 -0.73,-7.478 17.693,17.693 0 0 1 -3.575,-0.664 172.658,172.658 0 0 1 -1.77,6.99 z M 63.32,26.55 c -0.105,0.244 -0.175,0.489 -0.279,0.733 l 0.035,-0.104 0.243,-0.63 z m 29.328,4.822 a 20.438,20.438 0 0 0 -2.987,-7.198 c -0.85,0.335 -1.759,0.49 -2.67,0.454 a 27.398,27.398 0 0 1 1.11,7.478 c 1.55,0.089 3.102,-0.162 4.547,-0.734 z"
       id="path850" />
    <path
       fill="#ffc235"
       d="m 93.654,30.743 a 2.59,2.59 0 0 0 1.007,-2.202 14.478,14.478 0 0 0 -3.784,-6.01 1.528,1.528 0 0 1 -0.59,1.293 1.93,1.93 0 0 1 -0.278,0.21 19.363,19.363 0 0 1 3.193,7.058 c 0.174,-0.14 0.316,-0.245 0.452,-0.35 z m -24.122,5.731 a 20.53,20.53 0 0 0 -1.215,6.22 c 0.833,0.49 1.701,0.979 2.67,1.468 a 30.599,30.599 0 0 0 3.714,1.503 192.42,192.42 0 0 0 2.118,-5.766 40.039,40.039 0 0 1 -4.23,-1.748 27.978,27.978 0 0 1 -3.056,-1.678 z m 6.526,-6.464 a 30.755,30.755 0 0 1 -2.638,-1.434 36.984,36.984 0 0 0 -3.541,7.024 49.28,49.28 0 0 0 3.051,1.678 40.035,40.035 0 0 0 4.237,1.743 467.954,467.954 0 0 0 2.569,-7.478 41.758,41.758 0 0 1 -3.678,-1.534 z m 11.105,3.04 a 29.327,29.327 0 0 1 -6.317,-1.189 171.75,171.75 0 0 1 -2.36,7.548 32.364,32.364 0 0 0 7.289,1.361 30.309,30.309 0 0 0 1.388,-7.72 z M 73.94,27.738 c 0.82,0.509 1.666,0.975 2.534,1.398 a 27.82,27.82 0 0 0 3.54,1.433 c 0.799,-2.446 1.562,-4.822 2.221,-6.85 a 26.031,26.031 0 0 1 -2.082,-0.838 c -0.516,-0.232 -1.015,-0.5 -1.493,-0.804 a 32.248,32.248 0 0 0 -4.72,5.661 z M 94.21,38.71 a 3.105,3.105 0 0 1 -1.007,1.363 3.153,3.153 0 0 1 -0.556,0.384 13.087,13.087 0 0 1 -4.095,5.696 l 0.313,-0.21 a 16.72,16.72 0 0 0 5.692,-8.351 l -0.244,0.734 z M 68.039,20.225 c 0.157,-0.254 0.357,-0.479 0.59,-0.665 0.07,-0.07 0.139,-0.105 0.209,-0.175 l 0.66,-0.454 a 0.755,0.755 0 0 1 0.277,-0.175 17.493,17.493 0 0 0 -4.513,4.264 13.206,13.206 0 0 1 2.777,-2.795 z"
       id="path852" />
    <path
       fill="#ffc235"
       d="m 63.943,30.114 a 17.763,17.763 0 0 1 4.34,-6.29 3.614,3.614 0 0 1 -0.483,-3.18 14.463,14.463 0 0 0 -3.853,4.578 c -0.208,0.42 -0.416,0.874 -0.59,1.258 a 4.089,4.089 0 0 0 0.586,3.634 z M 76.855,19.387 a 7.018,7.018 0 0 0 1.944,1.782 15.027,15.027 0 0 1 4.963,-2.657 16.751,16.751 0 0 0 -6.907,0.875 z"
       id="path854" />
    <path
       fill="#ffc235"
       d="m 76.821,16.87 a 0.99,0.99 0 0 0 -0.313,0.35 17.1,17.1 0 0 1 7.22,1.293 11.474,11.474 0 0 0 -5.554,-2.202 c -0.49,0.072 -0.954,0.264 -1.353,0.56 z M 63.597,31.019 a 4.208,4.208 0 0 1 -0.625,-3.456 17.26,17.26 0 0 0 -0.833,5.241 c -0.002,1.27 0.137,2.536 0.417,3.774 0.131,0.464 0.318,0.91 0.555,1.328 a 13.151,13.151 0 0 1 0.486,-6.887 z"
       id="path856" />
    <path
       fill="#ffc235"
       d="m 76.403,17.464 a 1.862,1.862 0 0 0 0.244,1.608 17.494,17.494 0 0 1 7.115,-0.56 17.52,17.52 0 0 0 -7.359,-1.048 z"
       id="path858" />
    <path
       fill="#ffc235"
       d="m 82.165,16.45 c -0.07,0 -0.105,-0.035 -0.174,-0.035 0.695,0.14 1.32,0.839 1.77,2.097 0.73,-0.874 1.25,-1.188 1.526,-1.049 0.174,0.07 0.382,0.176 0.556,0.245 -0.486,-0.21 -1.18,0.036 -2.118,0.805 a 8.318,8.318 0 0 1 4.964,1.013 10.809,10.809 0 0 0 -1.666,-1.188 c -0.035,0 -0.035,-0.034 -0.07,-0.034 -0.035,-0.036 -0.069,-0.036 -0.104,-0.07 -0.105,-0.036 -0.174,-0.105 -0.278,-0.14 l -0.208,-0.105 a 16.538,16.538 0 0 0 -4.51,-1.608 h 0.069 l 0.243,0.07 z"
       id="path860" />
    <path
       fill="#ffc235"
       d="m 86.608,18.093 a 0.263,0.263 0 0 0 0.139,0.07 c -0.105,-0.07 -0.208,-0.105 -0.313,-0.175 0.07,0.07 0.139,0.07 0.173,0.105 z M 64.95,42.065 c -0.173,-0.28 -0.347,-0.56 -0.485,-0.804 l -0.035,-0.07 a 10.767,10.767 0 0 1 -1.076,-2.517 8.451,8.451 0 0 1 -0.521,-1.152 16.356,16.356 0 0 0 2.36,4.892 c -0.07,-0.105 -0.139,-0.174 -0.208,-0.28 0,-0.034 -0.034,-0.034 -0.034,-0.07 z M 79.216,16.101 H 78.73 c -0.763,0 -1.493,0.07 -2.222,0.14 a 6.176,6.176 0 0 1 1.389,-0.07 c 0.436,-0.06 0.878,-0.084 1.319,-0.07 z"
       id="path862" />
    <path
       fill="#ffc235"
       d="m 69.324,19.037 a 2.617,2.617 0 0 0 -0.59,0.66 15.298,15.298 0 0 1 6.838,-2.412 c 0.097,-0.143 0.213,-0.273 0.347,-0.384 a 3.293,3.293 0 0 1 1.493,-0.664 11.066,11.066 0 0 0 -2.187,0.21 c 0.347,-0.07 0.833,-0.14 1.18,-0.21 a 16.414,16.414 0 0 0 -6.63,2.482 l -0.278,0.178 a 0.347,0.347 0 0 1 -0.173,0.14 z M 81.437,16.31 a 10.26,10.26 0 0 0 -2.88,-0.104 10.059,10.059 0 0 1 5.171,2.305 c -0.625,-1.291 -1.423,-2.026 -2.29,-2.2 z"
       id="path864" />
    <path
       fill="#ffc235"
       d="m 81.333,16.311 h 0.07 a 11.99,11.99 0 0 0 -1.18,-0.14 c 0.372,0.027 0.743,0.074 1.11,0.14 z m 8.26,3.914 a 4.096,4.096 0 0 1 1.215,1.956 13.796,13.796 0 0 1 3.783,5.801 c -0.035,-0.14 -0.069,-0.245 -0.104,-0.384 a 16.66,16.66 0 0 0 -4.2,-6.814 l 0.139,0.14 c -0.278,-0.245 -0.556,-0.454 -0.833,-0.7 z m -8.99,1.957 c 0.625,0.28 1.25,0.56 1.874,0.768 0.556,-1.817 1.007,-3.354 1.285,-4.438 a 14.864,14.864 0 0 0 -4.478,2.935 c 0.411,0.294 0.854,0.54 1.32,0.735 z m 6.839,-3.6 C 87.304,18.477 87.13,18.407 86.991,18.303 a 0.03,0.03 0 0 1 0.013,0.002 0.034,0.034 0 0 1 0.022,0.033 c 0.104,0.07 0.242,0.14 0.416,0.244 z m 7.462,10.798 a 2.677,2.677 0 0 1 -1.042,2.272 5.868,5.868 0 0 1 -0.486,0.349 16.31,16.31 0 0 1 -0.416,7.548 c 0.208,-0.14 0.381,-0.245 0.555,-0.384 a 3.466,3.466 0 0 0 1.077,-1.536 c 0.46,-1.566 0.694,-3.19 0.694,-4.822 0,-0.384 0,-0.735 -0.035,-1.084 -0.035,-0.245 -0.035,-0.455 -0.07,-0.629 A 9.272,9.272 0 0 0 94.904,29.38 Z m 0.312,1.852 c 0,-0.105 -0.035,-0.245 -0.035,-0.35 a 0.447,0.447 0 0 0 0.035,0.21 z M 68.872,46.223 c 0.105,0.07 0.243,0.175 0.347,0.245 A 5.258,5.258 0 0 1 67.484,42.76 14.12,14.12 0 0 1 63.735,39.304 c 0.273,0.99 0.694,1.934 1.25,2.796 0,0.035 0.035,0.035 0.035,0.07 l 0.208,0.315 a 16.853,16.853 0 0 0 3.433,3.6 0.756,0.756 0 0 1 0.174,0.139 c 0.003,-0.035 0.003,-0.035 0.037,0 z M 89.038,19.84 a 9.636,9.636 0 0 0 -5.276,-1.326 16.513,16.513 0 0 1 6.386,3.072 4.401,4.401 0 0 0 -1.11,-1.746 z"
       id="path866" />
    <path
       fill="#ffc235"
       d="M 86.227,23.755 A 14.807,14.807 0 0 0 83.728,18.548 31.386,31.386 0 0 1 83,23.16 c 1.055,0.301 2.136,0.5 3.228,0.595 z"
       id="path868" />
    <path
       fill="#ffc235"
       d="m 89.108,23.37 a 17.935,17.935 0 0 0 -5.38,-4.857 15.316,15.316 0 0 1 2.984,5.241 5.304,5.304 0 0 0 2.396,-0.384 z m -1.25,-4.508 0.313,0.21 z m 1.909,1.468 0.172,0.138 a 0.608,0.608 0 0 1 -0.172,-0.139 z"
       id="path870" />
    <path
       fill="#ffc235"
       d="m 89.42,23.198 a 1.47,1.47 0 0 0 0.243,-0.175 1.334,1.334 0 0 0 0.52,-1.152 16.38,16.38 0 0 0 -6.42,-3.358 19.369,19.369 0 0 1 5.657,4.685 z M 64.951,42.065 c 0,0.035 0.035,0.035 0.035,0.07 0,-0.035 -0.035,-0.035 -0.035,-0.07 z m 0.243,0.349 a 1.94,1.94 0 0 0 -0.209,-0.28 c 0.061,0.1 0.131,0.193 0.209,0.28 z"
       id="path872" />
  </g>
  <path
     d="M 151.83125,108.59257 H 155.5 V 96.046675 h -3.66875 z m 0,-14.72762 H 155.5 v -2.772329 h -3.66875 z m -7.1183,8.52258 c 0,2.02287 -0.7827,3.75043 -2.56866,3.75043 -1.63939,0 -2.69038,-1.54565 -2.69038,-3.97783 0,-2.204777 0.85533,-3.726758 2.64129,-3.726758 1.85925,0 2.61775,1.704528 2.61775,3.431458 v 0.52331 z m 0.21988,6.20504 h 3.47309 V 90.933134 h -3.69364 v 6.681629 a 3.926966,3.638293 0 0 0 -1.54187,-1.46965 3.909483,3.6220952 0 0 0 -2.15177,-0.462259 c -2.76435,0 -5.38142,1.931909 -5.38142,6.522766 0,4.18217 2.15041,6.65982 5.4063,6.65982 a 3.9505009,3.6600979 0 0 0 2.32726,-0.57566 3.963277,3.6719347 0 0 0 1.53718,-1.72257 v 2.02349 z m -15.72804,0 h 3.66876 V 96.046675 h -3.66876 z m 0,-14.72762 h 3.66876 v -2.772329 h -3.66876 z m -15.58076,14.72762 h 3.66875 v -6.34149 c 0,-2.409108 1.10142,-3.590929 2.66683,-3.590929 1.51633,0 2.22572,0.999279 2.22572,2.750519 v 7.20494 h 3.66945 v -7.79616 c 0,-3.2726 -1.36975,-5.159026 -4.32976,-5.159026 a 4.4897863,4.1597401 0 0 0 -2.48662,0.575017 4.5092867,4.1778069 0 0 0 -1.74562,1.743143 v -7.04545 h -3.66875 z m -7.19429,-5.0687 c 0,1.864 -1.27156,3.04707 -2.78856,3.04707 a 1.7483069,1.6197879 0 0 1 -1.83438,-1.70451 c 0,-0.97811 0.6852,-1.49893 2.2997,-1.77304 l 2.34744,-0.40932 v 0.84167 z m 4.20735,5.0687 c -0.46463,-1.02296 -0.51373,-1.6821 -0.51373,-3.56852 v -4.70425 c 0,-3.159201 -1.54119,-4.66 -5.30812,-4.66 -2.96002,0 -5.039151,0.955044 -6.139243,1.954963 l 1.735533,2.247767 a 5.1790226,4.7983104 0 0 1 3.93839,-1.590518 c 1.19826,0 2.07982,0.317729 2.07982,1.795478 v 0.47721 l -2.98423,0.43236 c -3.05819,0.43236 -5.137336,1.45469 -5.137336,4.02269 0,2.31816 1.613824,4.00025 4.379516,4.00025 2.07914,0 3.39979,-0.95444 3.96193,-2.18173 0.045,0.6043 0.17685,1.20051 0.39135,1.77243 h 3.59612 z m -27.371081,0 h 3.668754 v -6.34149 c 0,-2.409108 1.101436,-3.590929 2.666847,-3.590929 1.516328,0 2.225726,0.999279 2.225726,2.750519 v 7.20494 h 3.669425 v -7.79616 c 0,-3.2726 -1.369729,-5.159026 -4.330411,-5.159026 a 4.4897863,4.1597401 0 0 0 -2.485969,0.575017 4.5072693,4.175938 0 0 0 -1.745618,1.743143 v -7.04545 H 83.266009 Z M 69.1787,107.11668 c 1.492784,1.2273 3.522827,1.86401 5.944235,1.86401 2.691045,0 5.528017,-1.34131 5.528017,-4.15974 0,-4.45442 -7.264208,-3.49998 -7.264208,-5.613188 0,-0.773142 0.732941,-1.069065 1.565395,-1.069065 a 6.2468346,5.787627 0 0 1 3.791137,1.295827 l 1.687795,-2.247767 A 8.4107005,7.7924262 0 0 0 75.07385,95.664168 c -2.763672,0 -5.406305,1.204236 -5.406305,3.931716 0,4.659386 7.289094,3.341116 7.289094,5.681726 0,0.86347 -1.026792,1.22729 -1.980957,1.22729 a 5.7452051,5.3228725 0 0 1 -4.060102,-1.68146 l -1.736208,2.29324 z M 51.274018,102.433 c 0,2.72748 0.978379,6.54332 7.533857,6.54332 6.554801,0 7.533181,-3.7959 7.533181,-6.54332 V 90.933134 h -3.93839 v 11.295536 c 0,2.50008 -1.320645,3.5685 -3.596135,3.5685 -2.274817,0 -3.59546,-1.06842 -3.59546,-3.65947 V 90.933134 h -3.937053 v 11.500496 z"
     id="path874"
     style="stroke-width:0.1;fill:#ffffff;stroke:#000000;stroke-miterlimit:4;stroke-dasharray:none" />
  <text
     xml:space="preserve"
     style="font-style:normal;font-weight:normal;font-size:10.6667px;line-height:1.25;font-family:sans-serif;fill:#ffffff;fill-opacity:1;stroke:#000000;stroke-width:0.1;stroke-miterlimit:4;stroke-dasharray:none"
     x="93.823875"
     y="88.004524"
     id="text2314"><tspan
       sodipodi:role="line"
       id="tspan2312"
       x="93.823875"
       y="88.004524"
       style="font-size:10.6667px;fill:#ffffff;stroke:#000000;stroke-width:0.1;stroke-miterlimit:4;stroke-dasharray:none">Powered by</tspan></text>
</svg>
