<?xml version="1.0" encoding="UTF-8" standalone="no"?>
<svg
   fill="currentColor"
   viewBox="0 0 156 29"
   version="1.1"
   id="svg964"
   sodipodi:docname="ushahidi-text.svg"
   inkscape:version="1.1.2 (0a00cf5339, 2022-02-04)"
   xmlns:inkscape="http://www.inkscape.org/namespaces/inkscape"
   xmlns:sodipodi="http://sodipodi.sourceforge.net/DTD/sodipodi-0.dtd"
   xmlns="http://www.w3.org/2000/svg"
   xmlns:svg="http://www.w3.org/2000/svg">
  <defs
     id="defs968" />
  <sodipodi:namedview
     id="namedview966"
     pagecolor="#ffffff"
     bordercolor="#666666"
     borderopacity="1.0"
     inkscape:pageshadow="2"
     inkscape:pageopacity="0.0"
     inkscape:pagecheckerboard="0"
     showgrid="false"
     inkscape:zoom="19.962169"
     inkscape:cx="112.36254"
     inkscape:cy="12.398453"
     inkscape:window-width="1920"
     inkscape:window-height="1016"
     inkscape:window-x="0"
     inkscape:window-y="0"
     inkscape:window-maximized="1"
     inkscape:current-layer="svg964" />
  <path
     d="M 152.03158,28.592016 H 155.5 V 16.029982 h -3.46842 z m 0,-14.747304 H 155.5 v -2.776037 h -3.46842 z m -6.72959,8.533973 c 0,2.025571 -0.73996,3.755448 -2.4284,3.755448 -1.54986,0 -2.54347,-1.547095 -2.54347,-3.983146 0,-2.207728 0.80862,-3.731742 2.49706,-3.731742 1.75773,0 2.47481,1.706796 2.47481,3.436048 v 0.524015 z m 0.20787,6.213331 h 3.28344 V 10.908975 h -3.49195 v 6.69056 a 3.7125283,3.6431582 0 0 0 -1.45767,-1.471611 3.696,3.6269387 0 0 0 -2.03426,-0.462882 c -2.61339,0 -5.08756,1.934493 -5.08756,6.531485 0,4.18776 2.03299,6.668726 5.11108,6.668726 a 3.7341424,3.6643684 0 0 0 2.20018,-0.576417 3.7487636,3.6787164 0 0 0 1.45322,-1.724887 v 2.026196 z m -14.86918,0 h 3.46842 V 16.029982 h -3.46842 z m 0,-14.747304 h 3.46842 v -2.776037 h -3.46842 z m -14.72996,14.747304 h 3.46841 v -6.349949 c 0,-2.412345 1.04129,-3.595748 2.52121,-3.595748 1.43353,0 2.1042,1.000621 2.1042,2.754203 v 7.214575 h 3.46905 v -7.806589 c 0,-3.27697 -1.29493,-5.165923 -4.09332,-5.165923 a 4.2439793,4.1646788 0 0 0 -2.35084,0.575794 4.2630505,4.1833936 0 0 0 -1.6503,1.745472 v -7.054876 h -3.46841 z m -6.80143,-5.075468 c 0,1.866494 -1.20213,3.051145 -2.63628,3.051145 a 1.6458452,1.6150918 0 0 1 -1.25297,-0.473485 1.6553808,1.6244492 0 0 1 -0.48123,-1.23331 c 0,-0.97941 0.64714,-1.500931 2.17411,-1.775416 l 2.21925,-0.409855 v 0.842169 z m 3.97762,5.075468 c -0.43927,-1.024326 -0.48569,-1.684337 -0.48569,-3.573289 v -4.710529 c 0,-3.163434 -1.45703,-4.665613 -5.01826,-4.665613 -2.79839,0 -4.76399,0.955705 -5.80401,1.95695 l 1.64076,2.250773 a 4.8962146,4.8047267 0 0 1 3.72334,-1.592634 c 1.13283,0 1.96624,0.318152 1.96624,1.797874 V 20.5334 l -2.82127,0.432937 c -2.89119,0.432937 -4.85679,1.45664 -4.85679,4.02806 0,2.321266 1.52569,4.005603 4.14035,4.005603 1.9656,0 3.21413,-0.955705 3.74558,-2.184648 0.0426,0.605114 0.16719,1.202118 0.36998,1.774793 h 3.39977 z m -25.876447,0 h 3.468409 v -6.349949 c 0,-2.412345 1.041286,-3.595748 2.521213,-3.595748 1.433523,0 2.104187,1.000621 2.104187,2.754203 v 7.214575 h 3.469062 v -7.806589 c 0,-3.27697 -1.294936,-5.165923 -4.093962,-5.165923 a 4.2439793,4.1646788 0 0 0 -2.350209,0.575794 4.2611434,4.1815222 0 0 0 -1.650291,1.745472 V 10.908975 H 87.210463 Z M 73.892397,27.114167 c 1.411269,1.228941 3.330469,1.866494 5.619649,1.866494 2.5441,0 5.226143,-1.343102 5.226143,-4.165302 0,-4.460374 -6.867538,-3.504669 -6.867538,-5.620695 0,-0.774171 0.69292,-1.070489 1.479926,-1.070489 a 5.9057172,5.7953663 0 0 1 3.584115,1.297563 l 1.595623,-2.250773 A 7.9520577,7.8034701 0 0 0 79.46564,15.646328 c -2.612756,0 -5.111084,1.205861 -5.111084,3.936981 0,4.665614 6.891063,3.345592 6.891063,5.689315 0,0.865251 -0.970725,1.228943 -1.872793,1.228943 A 5.4162229,5.3150185 0 0 1 75.533792,24.81723 l -1.640759,2.296937 z M 56.965429,22.424848 c 0,2.731122 0.924954,6.55207 7.12246,6.55207 6.196871,0 7.121824,-3.800986 7.121824,-6.55207 V 10.908975 h -3.723335 v 11.310633 c 0,2.503425 -1.248527,3.573289 -3.39976,3.573289 -2.150596,0 -3.399125,-1.069864 -3.399125,-3.664367 V 10.908975 h -3.722064 z"
     id="path962"
     style="stroke-width:0.13;fill:#ffffff;stroke:#000000;stroke-miterlimit:4;stroke-dasharray:none" />
  <text
     xml:space="preserve"
     style="font-style:normal;font-weight:normal;font-size:10.6667px;line-height:1.25;font-family:sans-serif;fill:#ffffff;fill-opacity:1;stroke:#000000;stroke-width:0.1;stroke-miterlimit:4;stroke-dasharray:none"
     x="94.791855"
     y="8.4360523"
     id="text2314"><tspan
       sodipodi:role="line"
       id="tspan2312"
       x="94.791855"
       y="8.4360523"
       style="font-size:10.6667px;fill:#ffffff;stroke:#000000;stroke-width:0.1;stroke-miterlimit:4;stroke-dasharray:none">Powered by</tspan></text>
</svg>
